<?xml version="1.0" encoding="UTF-8"?>
<svg version="1.1" xmlns="http://www.w3.org/2000/svg" width="32" height="32">
<path d="M0 0 C3.3011328 1.43974639 5.341295 3.36100594 7.8828125 5.90625 C8.77742188 6.77894531 9.67203125 7.65164062 10.59375 8.55078125 C12.5078125 11.09375 12.5078125 11.09375 12.26147461 12.99584961 C10.87284595 16.86124841 8.74917439 20.30017713 6.6953125 23.84375 C6.25638672 24.63652344 5.81746094 25.42929687 5.36523438 26.24609375 C4.93146484 26.99503906 4.49769531 27.74398438 4.05078125 28.515625 C3.65914795 29.20237305 3.26751465 29.88912109 2.86401367 30.59667969 C2.19269409 31.33772949 2.19269409 31.33772949 1.5078125 32.09375 C0.1878125 32.09375 -1.1321875 32.09375 -2.4921875 32.09375 C-3.97192383 30.50488281 -3.97192383 30.50488281 -5.32421875 28.296875 C-5.81212891 27.5028125 -6.30003906 26.70875 -6.80273438 25.890625 C-7.29837891 25.05015625 -7.79402344 24.2096875 -8.3046875 23.34375 C-8.81966797 22.51875 -9.33464844 21.69375 -9.86523438 20.84375 C-13.56024569 14.71013014 -13.56024569 14.71013014 -13.25952148 11.98657227 C-12.04497721 8.99059334 -9.98763373 7.07652122 -7.7421875 4.78125 C-6.88109375 3.87761719 -6.02 2.97398437 -5.1328125 2.04296875 C-2.4921875 0.09375 -2.4921875 0.09375 0 0 Z " fill="#FA4F4F" transform="translate(16.4921875,-0.09375)"/>
</svg>
